<mxfile host="app.diagrams.net" modified="2023-11-07T17:24:17.804Z" agent="Mozilla/5.0 (Macintosh; Intel Mac OS X 10_15_7) AppleWebKit/605.1.15 (KHTML, like Gecko) Version/16.3 Safari/605.1.15" version="22.0.8" etag="6zmA5lMkCRGmWl_7YRVE" type="github">
  <diagram name="Page-1" id="K3X-FnQyMUMwCHjJzWuL">
    <mxGraphModel>
      <root>
        <mxCell id="0" />
        <mxCell id="1" parent="0" />
      </root>
    </mxGraphModel>
  </diagram>
</mxfile>
